<svg xmlns="http://www.w3.org/2000/svg" id="Logo-1" viewBox="232.27 362.99 625.46 354.02">
  <defs>
    <style>
      .cls-1, .cls-2 {
        fill: #231f20;
      }

      .cls-3, .cls-4 {
        fill: #fff;
      }

      .cls-2, .cls-4 {
        stroke: #231f20;
        stroke-miterlimit: 10;
        stroke-width: 2px;
      }
    </style>
  </defs>
  <path id="White-2" data-name="White" class="cls-4" d="M545,364.74l-5.76,24.96,2.88,33.19,2.88,32.68-2.88,51.57v51.07l-5.94,54.13-3.85,20.93v21.45l3.34,19.91-3.34,34.11-36.55-2.68s-78.15,4.15-82.75,4.15-61.27,3.83-61.27,3.83h-114.9l-3.59-45.07,8.19-39.19,3.06-53.61,3.83-49.09.77-26.74-3.83-22.22-8.43-52.08,5.36-53.62,27.99-8.43h72.43l72.69,4.6,76.6-.77,53.07-3.09h0Z"/>
  <polygon id="Black-2" data-name="Black" class="cls-2" points="856.73 670.61 837.16 709.85 780.18 716.01 713.29 714.04 604.52 714.04 532.33 708.74 535.67 674.63 532.33 654.72 532.33 633.27 536.18 612.34 542.12 558.21 542.12 507.14 545 455.57 542.12 422.89 539.24 389.7 545 364.74 545 364.73 557.8 363.99 613.71 367.82 699.5 370.89 745.46 363.99 809.8 363.99 845.54 379.57 846.56 432.31 842.48 487.82 838.39 531.74 841.03 565.15 845.54 603 851.67 643.77 856.73 670.61"/>
  <polygon id="F" class="cls-1" points="513.96 402.8 513.96 485.17 500.24 490.31 458.03 428.54 369.14 428.54 369.14 531.15 417.53 531.15 442.93 489.28 457 489.28 457 585.71 439.84 594.29 418.22 550.71 369.14 550.71 369.14 647.83 424.74 661.56 416.16 678.71 286.1 678.71 286.1 664.64 318.36 639.25 318.36 437.81 281.98 426.14 290.56 408.98 493.03 408.98 513.96 402.8"/>
  <polygon id="E" class="cls-3" points="806.38 595.65 806.38 684.87 785.45 678.7 575.08 678.7 575.08 664.62 607.34 639.23 658.13 549.01 662.7 540.91 658.13 532.4 607.34 437.79 570.96 426.12 579.54 408.96 782.01 408.96 802.95 402.79 802.95 485.15 789.22 490.3 747.7 428.53 658.13 428.53 706.72 530.79 711.46 540.76 706.91 550.82 658.13 658.79 745.99 658.79 792.65 590.5 806.38 595.65"/>
</svg>