<svg width="142" height="40" viewBox="0 0 142 40" fill="none" xmlns="http://www.w3.org/2000/svg">
<g clip-path="url(#clip0_2602_1630)">
<g clip-path="url(#clip1_2602_1630)">
<path d="M8.58591e-08 398L6 404L8 404L8.00001 -364L6.00001 -364L1.09041e-05 -358L6.00001 -352L1.07324e-05 -346L6.00001 -340L1.05607e-05 -334L6.00001 -328L1.0389e-05 -322L6.00001 -316L1.02172e-05 -310L6.00001 -304L1.00455e-05 -298L6.00001 -292L9.8738e-06 -286L6.00001 -280L9.70208e-06 -274L6.00001 -268L9.53036e-06 -262L6.00001 -256L9.35865e-06 -250L6.00001 -244L9.18693e-06 -238L6.00001 -232L9.01521e-06 -226L6.00001 -220L8.84349e-06 -214L6.00001 -208L8.67177e-06 -202L6.00001 -196L8.50006e-06 -190L6.00001 -184L8.32834e-06 -178L6.00001 -172L8.15662e-06 -166L6.00001 -160L7.9849e-06 -154L6.00001 -148L7.81318e-06 -142L6.00001 -136L7.64146e-06 -130L6.00001 -124L7.46975e-06 -118L6.00001 -112L7.29803e-06 -106L6.00001 -100L7.12631e-06 -94L6.00001 -88L6.95459e-06 -82L6.00001 -76L6.78287e-06 -70L6.00001 -64L6.61115e-06 -58L6.00001 -52L6.43944e-06 -46L6.00001 -40L6.26772e-06 -34L6.00001 -28L6.096e-06 -22L6.00001 -16L5.92428e-06 -10L6.00001 -4L5.75256e-06 2L6.00001 8L5.58084e-06 14L6.00001 20L5.40913e-06 26L6.00001 32L5.23741e-06 38L6.00001 44L5.06569e-06 50L6 56L4.89397e-06 62L6 68L4.72225e-06 74L6 80L4.55053e-06 86L6 92L4.37882e-06 98L6 104L4.2071e-06 110L6 116L4.03538e-06 122L6 128L3.86366e-06 134L6 140L3.69194e-06 146L6 152L3.52022e-06 158L6 164L3.34851e-06 170L6 176L3.17679e-06 182L6 188L3.00507e-06 194L6 200L2.83335e-06 206L6 212L2.66163e-06 218L6 224L2.48992e-06 230L6 236L2.3182e-06 242L6 248L2.14648e-06 254L6 260L1.97476e-06 266L6 272L1.80304e-06 278L6 284L1.63132e-06 290L6 296L1.45961e-06 302L6 308L1.28789e-06 314L6 320L1.11617e-06 326L6 332L9.44451e-07 338L6 344L7.72732e-07 350L6 356L6.01014e-07 362L6 368L4.29296e-07 374L6 380L2.57577e-07 386L6 392L8.58591e-08 398Z" fill="#A27757"/>
</g>
<rect width="130" height="50" transform="translate(6 -5)" fill="#A27757"/>
<g clip-path="url(#clip2_2602_1630)">
<path d="M142 -358L136 -364L134 -364L134 404L136 404L142 398L136 392L142 386L136 380L142 374L136 368L142 362L136 356L142 350L136 344L142 338L136 332L142 326L136 320L142 314L136 308L142 302L136 296L142 290L136 284L142 278L136 272L142 266L136 260L142 254L136 248L142 242L136 236L142 230L136 224L142 218L136 212L142 206L136 200L142 194L136 188L142 182L136 176L142 170L136 164L142 158L136 152L142 146L136 140L142 134L136 128L142 122L136 116L142 110L136 104L142 98L136 92L142 86L136 80L142 74L136 68L142 62L136 56L142 50L136 44L142 38L136 32L142 26L136 20L142 14L136 8L142 2L136 -4L142 -10L136 -16L142 -22L136 -28L142 -34L136 -40L142 -46L136 -52L142 -58L136 -64L142 -70L136 -76L142 -82L136 -88L142 -94L136 -100L142 -106L136 -112L142 -118L136 -124L142 -130L136 -136L142 -142L136 -148L142 -154L136 -160L142 -166L136 -172L142 -178L136 -184L142 -190L136 -196L142 -202L136 -208L142 -214L136 -220L142 -226L136 -232L142 -238L136 -244L142 -250L136 -256L142 -262L136 -268L142 -274L136 -280L142 -286L136 -292L142 -298L136 -304L142 -310L136 -316L142 -322L136 -328L142 -334L136 -340L142 -346L136 -352L142 -358Z" fill="#A27757"/>
</g>
</g>
<defs>
<clipPath id="clip0_2602_1630">
<rect width="142" height="40" fill="white"/>
</clipPath>
<clipPath id="clip1_2602_1630">
<rect width="40" height="6" fill="white" transform="translate(0 40) rotate(-90)"/>
</clipPath>
<clipPath id="clip2_2602_1630">
<rect width="40" height="6" fill="white" transform="translate(142) rotate(90)"/>
</clipPath>
</defs>
</svg>
