<svg width="176" height="48" viewBox="0 0 176 48" fill="none" xmlns="http://www.w3.org/2000/svg">
<g opacity="0.7">
<rect width="158" height="48" transform="translate(9)" fill="black"/>
</g>
<g opacity="0.7">
<rect width="174.914" height="31.0283" transform="matrix(0.999599 -0.0283305 0.0176174 0.999845 0.306641 10.9766)" fill="black"/>
</g>
<path d="M54.3116 31.33C52.7276 31.33 51.3196 31 50.0876 30.34C48.8556 29.68 47.895 28.7487 47.2056 27.546C46.5163 26.3287 46.1716 24.9207 46.1716 23.322C46.1716 21.7233 46.5163 20.3153 47.2056 19.098C47.895 17.8807 48.8556 16.942 50.0876 16.282C51.3196 15.622 52.7276 15.292 54.3116 15.292C56.4236 15.292 58.191 15.8273 59.6136 16.898V19.054C58.3376 17.9247 56.6363 17.36 54.5096 17.36C53.3216 17.36 52.2656 17.602 51.3416 18.086C50.4323 18.57 49.721 19.2667 49.2076 20.176C48.6943 21.0707 48.4376 22.1193 48.4376 23.322C48.4376 24.5247 48.6943 25.5807 49.2076 26.49C49.7356 27.3993 50.4543 28.096 51.3636 28.58C52.2876 29.064 53.3363 29.306 54.5096 29.306C55.595 29.306 56.563 29.1667 57.4136 28.888C58.279 28.5947 59.0783 28.1327 59.8116 27.502V29.68C58.4916 30.78 56.6583 31.33 54.3116 31.33ZM67.2382 31.33C66.0502 31.33 65.0015 31.11 64.0922 30.67C63.1975 30.2153 62.4935 29.57 61.9802 28.734C61.4815 27.8833 61.2322 26.886 61.2322 25.742C61.2322 24.6127 61.4815 23.6227 61.9802 22.772C62.4789 21.9213 63.1829 21.2687 64.0922 20.814C65.0015 20.3447 66.0502 20.11 67.2382 20.11C68.4262 20.11 69.4749 20.3447 70.3842 20.814C71.2935 21.2687 71.9975 21.9213 72.4962 22.772C73.0095 23.6227 73.2662 24.6127 73.2662 25.742C73.2662 26.886 73.0095 27.8833 72.4962 28.734C71.9975 29.57 71.2935 30.2153 70.3842 30.67C69.4749 31.11 68.4262 31.33 67.2382 31.33ZM67.2382 29.57C68.3822 29.57 69.2915 29.218 69.9662 28.514C70.6409 27.81 70.9782 26.886 70.9782 25.742C70.9782 24.554 70.6409 23.6153 69.9662 22.926C69.2915 22.2367 68.3822 21.892 67.2382 21.892C66.0942 21.892 65.1849 22.2367 64.5102 22.926C63.8355 23.6153 63.4982 24.554 63.4982 25.742C63.4982 26.886 63.8355 27.81 64.5102 28.514C65.1849 29.218 66.0942 29.57 67.2382 29.57ZM79.882 31.33C78.4593 31.33 77.3813 30.9487 76.648 30.186C75.9293 29.4233 75.57 28.404 75.57 27.128V20.44H77.792V27.04C77.792 28.7267 78.6353 29.57 80.322 29.57C81.8033 29.57 82.962 28.9027 83.798 27.568V20.44H86.02V31H83.864V29.504C83.3653 30.1347 82.7713 30.5967 82.082 30.89C81.4073 31.1833 80.674 31.33 79.882 31.33ZM88.8714 20.44H91.0274V22.332C91.4674 21.6867 92.0834 21.21 92.8754 20.902C93.6821 20.594 94.6134 20.44 95.6694 20.44V22.178C94.5401 22.178 93.5721 22.3613 92.7654 22.728C91.9587 23.0947 91.4014 23.674 91.0934 24.466V31H88.8714V20.44ZM101.23 31.33C100.497 31.33 99.7196 31.2347 98.8983 31.044C98.0769 30.868 97.4316 30.626 96.9623 30.318V28.426C97.5343 28.7633 98.1943 29.042 98.9423 29.262C99.6903 29.4673 100.416 29.57 101.12 29.57C101.912 29.57 102.492 29.4747 102.858 29.284C103.225 29.0933 103.408 28.7853 103.408 28.36C103.408 28.0373 103.32 27.7807 103.144 27.59C102.983 27.3847 102.697 27.2013 102.286 27.04C101.89 26.8787 101.289 26.688 100.482 26.468C99.6169 26.2187 98.9276 25.9693 98.4143 25.72C97.9156 25.456 97.5343 25.126 97.2703 24.73C97.0209 24.334 96.8963 23.8207 96.8963 23.19C96.8963 22.178 97.2923 21.4153 98.0843 20.902C98.8909 20.374 99.9689 20.11 101.318 20.11C102.022 20.11 102.712 20.176 103.386 20.308C104.061 20.44 104.604 20.6233 105.014 20.858V22.706C104.589 22.4567 104.061 22.2587 103.43 22.112C102.814 21.9653 102.184 21.892 101.538 21.892C100.761 21.892 100.167 21.9873 99.7563 22.178C99.3456 22.3687 99.1402 22.706 99.1402 23.19C99.1402 23.498 99.2283 23.7473 99.4043 23.938C99.5803 24.1287 99.8589 24.2973 100.24 24.444C100.636 24.576 101.26 24.752 102.11 24.972C103.445 25.3387 104.369 25.7713 104.882 26.27C105.41 26.7687 105.674 27.458 105.674 28.338C105.674 29.2473 105.3 29.9733 104.552 30.516C103.804 31.0587 102.697 31.33 101.23 31.33ZM113.908 31.33C111.957 31.33 110.425 30.846 109.31 29.878C108.21 28.8953 107.66 27.5167 107.66 25.742C107.66 24.0113 108.151 22.64 109.134 21.628C110.131 20.616 111.547 20.11 113.38 20.11C114.597 20.11 115.631 20.3447 116.482 20.814C117.333 21.2687 117.971 21.9067 118.396 22.728C118.836 23.5347 119.056 24.4587 119.056 25.5V26.6H109.772C109.845 27.5973 110.263 28.3453 111.026 28.844C111.803 29.328 112.852 29.57 114.172 29.57C114.847 29.57 115.529 29.5113 116.218 29.394C116.907 29.262 117.516 29.0933 118.044 28.888V30.67C117.575 30.8607 116.951 31.0147 116.174 31.132C115.411 31.264 114.656 31.33 113.908 31.33ZM116.966 25.038C116.937 24.0407 116.607 23.2707 115.976 22.728C115.36 22.1707 114.48 21.892 113.336 21.892C112.221 21.892 111.356 22.178 110.74 22.75C110.124 23.322 109.801 24.0847 109.772 25.038H116.966ZM125.379 31.33C124.645 31.33 123.868 31.2347 123.047 31.044C122.225 30.868 121.58 30.626 121.111 30.318V28.426C121.683 28.7633 122.343 29.042 123.091 29.262C123.839 29.4673 124.565 29.57 125.269 29.57C126.061 29.57 126.64 29.4747 127.007 29.284C127.373 29.0933 127.557 28.7853 127.557 28.36C127.557 28.0373 127.469 27.7807 127.293 27.59C127.131 27.3847 126.845 27.2013 126.435 27.04C126.039 26.8787 125.437 26.688 124.631 26.468C123.765 26.2187 123.076 25.9693 122.563 25.72C122.064 25.456 121.683 25.126 121.419 24.73C121.169 24.334 121.045 23.8207 121.045 23.19C121.045 22.178 121.441 21.4153 122.233 20.902C123.039 20.374 124.117 20.11 125.467 20.11C126.171 20.11 126.86 20.176 127.535 20.308C128.209 20.44 128.752 20.6233 129.163 20.858V22.706C128.737 22.4567 128.209 22.2587 127.579 22.112C126.963 21.9653 126.332 21.892 125.687 21.892C124.909 21.892 124.315 21.9873 123.905 22.178C123.494 22.3687 123.289 22.706 123.289 23.19C123.289 23.498 123.377 23.7473 123.553 23.938C123.729 24.1287 124.007 24.2973 124.389 24.444C124.785 24.576 125.408 24.752 126.259 24.972C127.593 25.3387 128.517 25.7713 129.031 26.27C129.559 26.7687 129.823 27.458 129.823 28.338C129.823 29.2473 129.449 29.9733 128.701 30.516C127.953 31.0587 126.845 31.33 125.379 31.33Z" fill="white"/>
</svg>
