<svg width="194" height="48" viewBox="0 0 194 48" fill="none" xmlns="http://www.w3.org/2000/svg">
<g opacity="0.7">
<rect width="176" height="48" transform="translate(9)" fill="black"/>
</g>
<g opacity="0.7">
<rect width="192.851" height="31.0293" transform="matrix(0.99967 -0.0256955 0.0194248 0.999811 0.306641 10.9766)" fill="black"/>
</g>
<path d="M50.45 17.514H45.676V15.622H57.49V17.514H52.716V31H50.45V17.514ZM60.2075 18.372C59.8408 18.372 59.5328 18.2473 59.2835 17.998C59.0342 17.7487 58.9095 17.4407 58.9095 17.074C58.9095 16.7073 59.0342 16.3993 59.2835 16.15C59.5328 15.9007 59.8408 15.776 60.2075 15.776C60.5888 15.776 60.9042 15.9007 61.1535 16.15C61.4175 16.3993 61.5495 16.7073 61.5495 17.074C61.5495 17.4407 61.4175 17.7487 61.1535 17.998C60.9042 18.2473 60.5888 18.372 60.2075 18.372ZM59.0855 20.44H61.3515V31H59.0855V20.44ZM64.4095 20.44H66.5215V21.958C67.0202 21.342 67.5848 20.88 68.2155 20.572C68.8462 20.264 69.4988 20.11 70.1735 20.11C71.0242 20.11 71.6988 20.2567 72.1975 20.55C72.6962 20.8287 73.0628 21.2613 73.2975 21.848C73.7668 21.276 74.3388 20.8433 75.0135 20.55C75.7028 20.2567 76.3922 20.11 77.0815 20.11C78.3722 20.11 79.3035 20.44 79.8755 21.1C80.4475 21.7453 80.7335 22.706 80.7335 23.982V31H78.5775V24.268C78.5775 23.4027 78.4162 22.794 78.0935 22.442C77.7708 22.0753 77.2208 21.892 76.4435 21.892C75.3288 21.892 74.4195 22.376 73.7155 23.344C73.7448 23.564 73.7595 23.9233 73.7595 24.422V31H71.6035V24.268C71.6035 23.4027 71.4568 22.794 71.1635 22.442C70.8702 22.0753 70.3422 21.892 69.5795 21.892C68.4648 21.892 67.4675 22.5227 66.5875 23.784V31H64.4095V20.44ZM89.2956 31.33C87.345 31.33 85.8123 30.846 84.6976 29.878C83.5976 28.8953 83.0476 27.5167 83.0476 25.742C83.0476 24.0113 83.539 22.64 84.5216 21.628C85.519 20.616 86.9343 20.11 88.7676 20.11C89.985 20.11 91.019 20.3447 91.8696 20.814C92.7203 21.2687 93.3583 21.9067 93.7836 22.728C94.2236 23.5347 94.4436 24.4587 94.4436 25.5V26.6H85.1596C85.233 27.5973 85.651 28.3453 86.4136 28.844C87.191 29.328 88.2396 29.57 89.5596 29.57C90.2343 29.57 90.9163 29.5113 91.6056 29.394C92.295 29.262 92.9036 29.0933 93.4316 28.888V30.67C92.9623 30.8607 92.339 31.0147 91.5616 31.132C90.799 31.264 90.0436 31.33 89.2956 31.33ZM92.3536 25.038C92.3243 24.0407 91.9943 23.2707 91.3636 22.728C90.7476 22.1707 89.8676 21.892 88.7236 21.892C87.609 21.892 86.7436 22.178 86.1276 22.75C85.5116 23.322 85.189 24.0847 85.1596 25.038H92.3536ZM100.942 31.33C99.8717 31.33 99.043 31.022 98.4564 30.406C97.8844 29.79 97.5984 28.9173 97.5984 27.788V22.156H95.9924V20.44H97.5984V17.272H99.8424V20.44H102.438V22.156H99.8424V27.634C99.8424 28.338 99.9744 28.8367 100.238 29.13C100.517 29.4233 101.016 29.57 101.734 29.57C102.16 29.57 102.585 29.4747 103.01 29.284V31.044C102.453 31.2347 101.764 31.33 100.942 31.33ZM108.563 31.33C107.287 31.33 106.26 31.0073 105.483 30.362C104.72 29.702 104.339 28.8147 104.339 27.7C104.339 26.5267 104.705 25.6247 105.439 24.994C106.187 24.3487 107.243 24.026 108.607 24.026C110.059 24.026 111.291 24.3193 112.303 24.906V24.356C112.303 23.52 112.046 22.904 111.533 22.508C111.034 22.0973 110.242 21.892 109.157 21.892C108.511 21.892 107.881 21.958 107.265 22.09C106.663 22.2073 106.121 22.376 105.637 22.596V20.792C106.077 20.5867 106.649 20.4253 107.353 20.308C108.057 20.176 108.739 20.11 109.399 20.11C111.144 20.11 112.435 20.4987 113.271 21.276C114.121 22.0387 114.547 23.102 114.547 24.466V31H112.457V29.812C112.002 30.3107 111.459 30.692 110.829 30.956C110.213 31.2053 109.457 31.33 108.563 31.33ZM109.113 29.636C109.817 29.636 110.455 29.4967 111.027 29.218C111.599 28.9393 112.024 28.5507 112.303 28.052V26.622C111.349 26.006 110.286 25.698 109.113 25.698C108.262 25.698 107.624 25.8667 107.199 26.204C106.788 26.5267 106.583 27.0253 106.583 27.7C106.583 28.9907 107.426 29.636 109.113 29.636ZM123.86 31.33C122.907 31.33 122.078 31.1833 121.374 30.89C120.685 30.582 120.047 30.1053 119.46 29.46V31H117.304V14.742H119.526V21.848C120.01 21.276 120.633 20.8433 121.396 20.55C122.159 20.2567 122.98 20.11 123.86 20.11C124.916 20.11 125.862 20.352 126.698 20.836C127.549 21.3053 128.209 21.9653 128.678 22.816C129.162 23.6667 129.404 24.642 129.404 25.742C129.404 26.8567 129.162 27.8393 128.678 28.69C128.209 29.526 127.549 30.1787 126.698 30.648C125.862 31.1027 124.916 31.33 123.86 31.33ZM123.354 29.57C124.073 29.57 124.718 29.416 125.29 29.108C125.877 28.7853 126.331 28.3307 126.654 27.744C126.991 27.1573 127.16 26.49 127.16 25.742C127.16 24.994 126.991 24.3267 126.654 23.74C126.331 23.1533 125.877 22.6987 125.29 22.376C124.718 22.0533 124.073 21.892 123.354 21.892C122.459 21.892 121.66 22.134 120.956 22.618C120.252 23.102 119.775 23.7473 119.526 24.554V26.93C119.805 27.7367 120.281 28.382 120.956 28.866C121.645 29.3353 122.445 29.57 123.354 29.57ZM131.827 14.742H134.049V31H131.827V14.742ZM142.727 31.33C140.777 31.33 139.244 30.846 138.129 29.878C137.029 28.8953 136.479 27.5167 136.479 25.742C136.479 24.0113 136.971 22.64 137.953 21.628C138.951 20.616 140.366 20.11 142.199 20.11C143.417 20.11 144.451 20.3447 145.301 20.814C146.152 21.2687 146.79 21.9067 147.215 22.728C147.655 23.5347 147.875 24.4587 147.875 25.5V26.6H138.591C138.665 27.5973 139.083 28.3453 139.845 28.844C140.623 29.328 141.671 29.57 142.991 29.57C143.666 29.57 144.348 29.5113 145.037 29.394C145.727 29.262 146.335 29.0933 146.863 28.888V30.67C146.394 30.8607 145.771 31.0147 144.993 31.132C144.231 31.264 143.475 31.33 142.727 31.33ZM145.785 25.038C145.756 24.0407 145.426 23.2707 144.795 22.728C144.179 22.1707 143.299 21.892 142.155 21.892C141.041 21.892 140.175 22.178 139.559 22.75C138.943 23.322 138.621 24.0847 138.591 25.038H145.785Z" fill="white"/>
</svg>
