<svg width="194" height="6" viewBox="0 0 194 6" fill="none" xmlns="http://www.w3.org/2000/svg">
<path d="M25 6L31 2.09815e-06L19 1.04907e-06L25 6Z" fill="#3D322A"/>
<path d="M13 6L19 1.04907e-06L7 0L13 6Z" fill="#3D322A"/>
<path d="M37 6L43 3.14722e-06L31 2.09815e-06L37 6Z" fill="#3D322A"/>
<path d="M49 6L55 4.19629e-06L43 3.14722e-06L49 6Z" fill="#3D322A"/>
<path d="M61 6L67 5.24537e-06L55 4.19629e-06L61 6Z" fill="#3D322A"/>
<path d="M73 6.00001L79 6.29444e-06L67 5.24537e-06L73 6.00001Z" fill="#3D322A"/>
<path d="M85 6.00001L91 7.34351e-06L79 6.29444e-06L85 6.00001Z" fill="#3D322A"/>
<path d="M97 6.00001L103 8.39259e-06L91 7.34351e-06L97 6.00001Z" fill="#3D322A"/>
<path d="M109 6.00001L115 9.44166e-06L103 8.39259e-06L109 6.00001Z" fill="#3D322A"/>
<path d="M121 6.00001L127 1.04907e-05L115 9.44166e-06L121 6.00001Z" fill="#3D322A"/>
<path d="M133 6.00001L139 1.15398e-05L127 1.04907e-05L133 6.00001Z" fill="#3D322A"/>
<path d="M145 6.00001L151 1.25889e-05L139 1.15398e-05L145 6.00001Z" fill="#3D322A"/>
<path d="M157 6.00001L163 1.3638e-05L151 1.25889e-05L157 6.00001Z" fill="#3D322A"/>
<path d="M169 6.00001L175 1.4687e-05L163 1.3638e-05L169 6.00001Z" fill="#3D322A"/>
<path d="M181 6.00002L187 1.57361e-05L175 1.4687e-05L181 6.00002Z" fill="#3D322A"/>
<path d="M187 1.57361e-05L194 6.00002V1.57361e-05H187Z" fill="#3D322A"/>
<path d="M0 6.29444e-06V6.00001L7 0L0 6.29444e-06Z" fill="#3D322A"/>
</svg>
