<svg width="194" height="6" viewBox="0 0 194 6" fill="none" xmlns="http://www.w3.org/2000/svg">
<path d="M169 2.9469e-05L163 6.00003L175 6.00003L169 2.9469e-05Z" fill="#E3DACC"/>
<path d="M181 3.14717e-05L175 6.00003L187 6.00003L181 3.14717e-05Z" fill="#E3DACC"/>
<path d="M157 2.74662e-05L151 6.00003L163 6.00003L157 2.74662e-05Z" fill="#E3DACC"/>
<path d="M145 2.54635e-05L139 6.00002L151 6.00003L145 2.54635e-05Z" fill="#E3DACC"/>
<path d="M133 2.29839e-05L127 6.00002L139 6.00002L133 2.29839e-05Z" fill="#E3DACC"/>
<path d="M121 2.09812e-05L115 6.00002L127 6.00002L121 2.09812e-05Z" fill="#E3DACC"/>
<path d="M109 1.89784e-05L103 6.00002L115 6.00002L109 1.89784e-05Z" fill="#E3DACC"/>
<path d="M97 1.69757e-05L91 6.00002L103 6.00002L97 1.69757e-05Z" fill="#E3DACC"/>
<path d="M85 1.49729e-05L79 6.00001L91 6.00002L85 1.49729e-05Z" fill="#E3DACC"/>
<path d="M73 1.24933e-05L67 6.00001L79 6.00001L73 1.24933e-05Z" fill="#E3DACC"/>
<path d="M61 1.04906e-05L55 6.00001L67 6.00001L61 1.04906e-05Z" fill="#E3DACC"/>
<path d="M49 8.48783e-06L43 6.00001L55 6.00001L49 8.48783e-06Z" fill="#E3DACC"/>
<path d="M37 6.48508e-06L31 6.00001L43 6.00001L37 6.48508e-06Z" fill="#E3DACC"/>
<path d="M25 4.48233e-06L19 6L31 6.00001L25 4.48233e-06Z" fill="#E3DACC"/>
<path d="M13 2.00275e-06L7 6L19 6L13 2.00275e-06Z" fill="#E3DACC"/>
<path d="M7 6L0 4.48233e-06V6.00001L7 6Z" fill="#E3DACC"/>
<path d="M194 6.00003V2.9469e-05L187 6.00003H194Z" fill="#E3DACC"/>
</svg>
