<svg width="18" height="20" viewBox="0 0 18 20" fill="none" xmlns="http://www.w3.org/2000/svg">
<path d="M1.33887 4.88841H3.04125M3.04125 4.88841H16.6603M3.04125 4.88841V16.8051C3.04125 17.2566 3.22061 17.6896 3.53986 18.0088C3.85912 18.3281 4.29213 18.5075 4.74363 18.5075H13.2555C13.707 18.5075 14.14 18.3281 14.4593 18.0088C14.7786 17.6896 14.9579 17.2566 14.9579 16.8051V4.88841M5.59482 4.88841V3.18602C5.59482 2.73452 5.77418 2.30152 6.09344 1.98226C6.41269 1.663 6.8457 1.48364 7.2972 1.48364H10.702C11.1535 1.48364 11.5865 1.663 11.9057 1.98226C12.225 2.30152 12.4043 2.73452 12.4043 3.18602V4.88841M7.2972 9.14436V14.2515M10.702 9.14436V14.2515" stroke="#86796E" stroke-width="1.70238" stroke-linecap="round" stroke-linejoin="round"/>
</svg>
