<?xml version="1.0" standalone="no"?>
<!DOCTYPE svg PUBLIC "-//W3C//DTD SVG 20010904//EN"
 "http://www.w3.org/TR/2001/REC-SVG-20010904/DTD/svg10.dtd">
<svg version="1.0" xmlns="http://www.w3.org/2000/svg"
 width="512.000000pt" height="512.000000pt" viewBox="0 0 512.000000 512.000000"
 preserveAspectRatio="xMidYMid meet">

<g transform="translate(0.000000,512.000000) scale(0.100000,-0.100000)"
fill="#000000" stroke="none">
<path d="M2365 4683 c-22 -2 -96 -13 -164 -24 -500 -83 -978 -361 -1294 -754
-241 -299 -388 -624 -454 -1000 -25 -143 -24 -548 1 -690 81 -459 277 -838
600 -1161 322 -322 710 -523 1161 -601 146 -25 539 -25 689 0 307 52 578 160
838 334 516 344 863 910 935 1522 18 162 13 444 -12 591 -70 417 -271 822
-558 1127 -335 355 -829 599 -1319 652 -91 10 -332 12 -423 4z m505 -442 c356
-62 634 -206 896 -466 268 -267 425 -573 485 -950 20 -119 17 -438 -4 -555
-69 -381 -212 -657 -476 -920 -262 -261 -548 -411 -906 -476 -148 -27 -468
-25 -626 4 -378 69 -706 256 -967 552 -296 337 -440 752 -418 1208 22 451 177
809 486 1122 289 293 629 457 1033 500 123 13 365 4 497 -19z"/>
<path d="M1640 3475 l-145 -145 385 -385 385 -385 -385 -385 -385 -385 148
-147 147 -148 385 385 385 385 385 -385 385 -385 147 148 148 147 -385 385
-385 385 385 385 385 385 -148 147 -147 148 -385 -385 -385 -385 -383 383
c-210 210 -384 382 -387 382 -3 0 -70 -65 -150 -145z"/>
</g>
</svg>
