<?xml version="1.0" standalone="no"?>
<!DOCTYPE svg PUBLIC "-//W3C//DTD SVG 20010904//EN"
 "http://www.w3.org/TR/2001/REC-SVG-20010904/DTD/svg10.dtd">
<svg version="1.0" xmlns="http://www.w3.org/2000/svg"
 width="512.000000pt" height="512.000000pt" viewBox="0 0 512.000000 512.000000"
 preserveAspectRatio="xMidYMid meet">

<g transform="translate(0.000000,512.000000) scale(0.100000,-0.100000)"
fill="#000000" stroke="none">
<path d="M1953 4676 c-375 -72 -681 -370 -757 -738 -23 -113 -24 -2273 -1
-2416 42 -261 154 -477 352 -683 199 -206 415 -328 686 -386 117 -26 428 -25
547 0 267 58 471 169 669 367 188 187 303 397 363 658 22 97 22 102 25 1230
l4 1132 -210 0 -210 0 -4 -1092 c-3 -1003 -5 -1099 -21 -1168 -42 -177 -114
-314 -233 -440 -123 -131 -243 -206 -410 -256 -77 -23 -107 -27 -233 -28 -109
-1 -165 4 -224 18 -319 74 -571 311 -668 628 l-23 73 -3 1112 c-3 1211 -4
1180 53 1293 39 78 144 182 225 224 166 88 368 83 528 -10 67 -40 154 -134
196 -213 67 -128 66 -99 66 -1176 l0 -971 -22 -44 c-30 -58 -76 -85 -144 -84
-64 1 -111 26 -139 74 -20 34 -20 50 -23 1048 l-3 1012 -209 0 -210 0 0 -1010
c0 -882 2 -1021 16 -1087 54 -265 298 -463 569 -463 162 0 292 55 411 174 91
91 144 185 164 291 8 43 10 358 8 1110 -3 1040 -3 1051 -25 1126 -47 165 -113
277 -243 412 -132 138 -269 221 -445 269 -93 25 -321 33 -422 14z"/>
</g>
</svg>
