<?xml version="1.0" standalone="no"?>
<!DOCTYPE svg PUBLIC "-//W3C//DTD SVG 20010904//EN"
 "http://www.w3.org/TR/2001/REC-SVG-20010904/DTD/svg10.dtd">
<svg version="1.0" xmlns="http://www.w3.org/2000/svg"
 width="13312.000000pt" height="512.000000pt" viewBox="0 0 13312.000000 512.000000"
 preserveAspectRatio="xMidYMid meet">

<g transform="translate(0.000000,512.000000) scale(0.100000,-0.100000)"
fill="#000000" stroke="none">
<path d="M0 2568 l0 -2553 1278 1275 c702 701 1851 1850 2552 2553 l1275 1277
-2553 0 -2552 0 0 -2552z"/>
<path d="M7680 2565 l2555 -2555 1280 1278 c704 702 1854 1852 2555 2555
l1275 1277 -5110 0 -5110 0 2555 -2555z"/>
<path d="M17920 2565 l2555 -2555 1280 1278 c704 702 1854 1852 2555 2555
l1275 1277 -5110 0 -5110 0 2555 -2555z"/>
<path d="M28160 2565 l2555 -2555 1280 1278 c704 702 1854 1852 2555 2555
l1275 1277 -5110 0 -5110 0 2555 -2555z"/>
<path d="M38403 2563 l2557 -2558 2557 2558 2558 2557 -5115 0 -5115 0 2558
-2557z"/>
<path d="M48643 2563 l2557 -2558 2557 2558 2558 2557 -5115 0 -5115 0 2558
-2557z"/>
<path d="M58883 2563 l2557 -2558 2557 2558 2558 2557 -5115 0 -5115 0 2558
-2557z"/>
<path d="M69123 2563 l2557 -2558 2557 2558 2558 2557 -5115 0 -5115 0 2558
-2557z"/>
<path d="M79363 2563 l2557 -2558 2557 2558 2558 2557 -5115 0 -5115 0 2558
-2557z"/>
<path d="M89603 2563 l2557 -2558 2557 2558 2558 2557 -5115 0 -5115 0 2558
-2557z"/>
<path d="M99843 2563 l2557 -2558 2557 2558 2558 2557 -5115 0 -5115 0 2558
-2557z"/>
<path d="M110083 2563 l2557 -2558 2557 2558 2558 2557 -5115 0 -5115 0 2558
-2557z"/>
<path d="M120323 2563 l2557 -2558 2557 2558 2558 2557 -5115 0 -5115 0 2558
-2557z"/>
<path d="M130560 2565 c1405 -1405 2556 -2555 2557 -2555 2 0 3 1150 3 2555
l0 2555 -2557 0 -2558 0 2555 -2555z"/>
</g>
</svg>
