<svg width="109" height="62" viewBox="0 0 109 62" fill="none" xmlns="http://www.w3.org/2000/svg">
<path d="M16.92 27.224L16.2 27.464L13.344 23.216H6.72V30.824H10.488L12.24 27.752H12.984V34.328L12.024 34.808L10.56 31.904H6.696V39.008L10.416 40.04L9.936 41H1.44V40.256L3.696 38.48V23.936L1.2 23.096L1.68 22.136H15.6L16.92 21.704V27.224ZM25.4415 41.048C24.8015 41.176 24.0335 41.24 23.1375 41.24C22.0815 41.24 21.1295 40.968 20.2815 40.424C19.4495 39.864 18.7935 39.112 18.3135 38.168C17.8495 37.224 17.6175 36.184 17.6175 35.048C17.6175 33.816 17.9935 32.664 18.7455 31.592C19.4975 30.504 20.4335 29.64 21.5535 29C22.6895 28.344 23.7855 28.016 24.8415 28.016C26.3615 28.016 27.5375 28.616 28.3695 29.816C29.2175 31.016 29.6415 32.6 29.6415 34.568H20.7615C20.8575 35.928 21.2255 37.04 21.8655 37.904C22.5215 38.768 23.4095 39.2 24.5295 39.2C25.5695 39.2 27.0495 38.392 28.9695 36.776L29.6895 37.688L25.4415 41.048ZM23.4495 30.032C21.7215 30.032 20.8175 31.216 20.7375 33.584H26.3535C26.2095 32.72 26.0575 32.064 25.8975 31.616C25.7535 31.152 25.4895 30.776 25.1055 30.488C24.7375 30.184 24.1855 30.032 23.4495 30.032ZM43.3594 21.656C44.2074 21.656 45.1834 21.776 46.2874 22.016C47.4074 22.256 48.2234 22.512 48.7354 22.784V27.44H47.8234C46.3514 24.928 44.3994 23.672 41.9674 23.672C40.9114 23.672 39.9434 23.984 39.0634 24.608C38.1994 25.216 37.5194 26.072 37.0234 27.176C36.5274 28.264 36.2794 29.488 36.2794 30.848C36.2794 32.416 36.5194 33.848 36.9994 35.144C37.4954 36.44 38.2394 37.48 39.2314 38.264C40.2394 39.048 41.4794 39.44 42.9514 39.44C44.3114 39.44 46.2634 38.416 48.8074 36.368L49.5274 37.52L45.1114 40.952C44.5194 41.16 43.9434 41.296 43.3834 41.36C42.8394 41.44 42.2474 41.48 41.6074 41.48C39.9274 41.48 38.4394 41.072 37.1434 40.256C35.8474 39.44 34.8394 38.32 34.1194 36.896C33.3994 35.456 33.0394 33.824 33.0394 32C33.0394 30.128 33.5834 28.4 34.6714 26.816C35.7594 25.216 37.1114 23.96 38.7274 23.048C40.3434 22.12 41.8874 21.656 43.3594 21.656ZM64.8709 41H60.3109V38.912L57.5989 41.048C57.2789 41.176 56.8789 41.24 56.3989 41.24C55.0229 41.24 54.0229 40.896 53.3989 40.208C52.7909 39.52 52.4869 38.696 52.4869 37.736C52.4869 37.16 52.6949 36.592 53.1109 36.032C53.5269 35.472 54.1189 34.944 54.8869 34.448H60.3109V32.912C60.3109 31.872 60.0309 31.136 59.4709 30.704C58.9269 30.272 58.1749 30.056 57.2149 30.056C56.2229 30.056 55.0069 30.656 53.5669 31.856L52.8469 30.944L56.3029 28.208C56.9429 28.08 57.7109 28.016 58.6069 28.016C60.0629 28.016 61.1909 28.376 61.9909 29.096C62.7909 29.8 63.1909 30.832 63.1909 32.192V39.2L65.3509 40.04L64.8709 41ZM57.1669 39.2C58.1429 39.2 59.1909 38.752 60.3109 37.856V35.432H56.0629C55.8549 35.688 55.7029 35.944 55.6069 36.2C55.5269 36.456 55.4869 36.736 55.4869 37.04C55.4869 37.632 55.6389 38.144 55.9429 38.576C56.2469 38.992 56.6549 39.2 57.1669 39.2ZM89.8331 41H85.2731V32.912C85.2731 32.032 85.1371 31.416 84.8651 31.064C84.5931 30.712 84.1051 30.536 83.4011 30.536C82.9051 30.536 82.4171 30.632 81.9371 30.824C81.4571 31 80.8891 31.36 80.2331 31.904V39.2L82.3931 40.04L81.9131 41H77.3531V32.912C77.3531 32.032 77.2171 31.416 76.9451 31.064C76.6731 30.712 76.1851 30.536 75.4811 30.536C74.9851 30.536 74.4971 30.632 74.0171 30.824C73.5371 31 72.9691 31.36 72.3131 31.904V39.2L74.4731 40.04L73.9931 41H67.2971V40.256L69.4331 38.576V31.784L67.2971 30.536V29.792L71.4011 27.776L72.1691 30.848L75.3611 28.184C75.6971 28.056 76.1371 27.992 76.6811 27.992C77.6091 27.992 78.3771 28.248 78.9851 28.76C79.5931 29.256 79.9771 29.944 80.1371 30.824L83.2571 28.208C83.5931 28.08 84.0331 28.016 84.5771 28.016C85.6651 28.016 86.5291 28.352 87.1691 29.024C87.8091 29.68 88.1291 30.576 88.1291 31.712V39.2L90.3131 40.04L89.8331 41ZM99.6266 41.264C98.7626 41.264 97.9626 41 97.2266 40.472V45.128L100.587 46.16L100.107 47.12H92.2106V46.376L94.3466 44.696V31.808L92.2106 30.56V29.816L96.3146 27.8L97.1066 30.92L100.539 28.208C101.051 28.08 101.635 28.016 102.291 28.016C103.155 28.016 103.931 28.296 104.619 28.856C105.323 29.4 105.867 30.144 106.251 31.088C106.651 32.032 106.851 33.072 106.851 34.208C106.851 35.44 106.475 36.6 105.723 37.688C104.971 38.76 104.027 39.624 102.891 40.28C101.771 40.92 100.683 41.24 99.6266 41.24V41.264ZM101.067 30.32C100.459 30.32 99.8666 30.44 99.2906 30.68C98.7146 30.92 98.0266 31.392 97.2266 32.096V36.152C97.2266 37.032 97.5546 37.768 98.2106 38.36C98.8666 38.952 99.8026 39.248 101.019 39.248C102.827 39.248 103.731 37.96 103.731 35.384C103.731 33.96 103.499 32.76 103.035 31.784C102.571 30.808 101.915 30.32 101.067 30.32Z" fill="black"/>
<path d="M82.131 22.875H78.939V22.5495L79.7685 21.909L77.7735 19.389L75.5895 21.8565L77.112 22.455L76.902 22.875H73.71V22.5495L74.8755 21.8355L77.448 18.969L74.8755 15.6825L73.815 15.042L74.025 14.622H77.217V14.9475L76.3875 15.588L78.372 18.087L80.3775 15.651L78.8445 15.042L79.0545 14.622H82.2465V14.9475L81.165 15.609L78.7185 18.5175L81.291 21.8145L82.341 22.455L82.131 22.875ZM90.8465 15.7245L87.875 22.539L86.783 23.0745L83.717 15.6825L82.667 15.042L82.877 14.622H86.069V14.9475L85.082 15.714L87.6125 21.8145L90.2795 15.672L88.4315 15.042L88.6415 14.622H91.8335V14.9475L90.8465 15.7245ZM95.656 22.875H92.464V22.5495L93.451 21.7725V15.4095L92.359 15.042L92.569 14.622H95.761V14.9475L94.7635 15.7245V22.077L95.866 22.455L95.656 22.875ZM100.209 22.875H97.0167V22.5495L98.0037 21.7725V15.4095L96.9117 15.042L97.1217 14.622H100.314V14.9475L99.3162 15.7245V22.077L100.419 22.455L100.209 22.875ZM104.761 22.875H101.569V22.5495L102.556 21.7725V15.4095L101.464 15.042L101.674 14.622H104.866V14.9475L103.869 15.7245V22.077L104.971 22.455L104.761 22.875Z" fill="#584234"/>
</svg>
