<svg width="14" height="14" viewBox="0 0 14 14" fill="none" xmlns="http://www.w3.org/2000/svg">
<path d="M12.3063 13.2812C10.7938 13.1687 9.35625 12.8 7.99375 12.175C6.64375 11.5375 5.43125 10.6812 4.35625 9.60625C3.28125 8.53125 2.43125 7.31875 1.80625 5.96875C1.19375 4.61875 0.825 3.1875 0.7 1.675C0.675 1.4125 0.75 1.1875 0.925 0.999999C1.1125 0.799999 1.3375 0.7 1.6 0.7H4.15C4.3625 0.7 4.54375 0.76875 4.69375 0.90625C4.85625 1.03125 4.9625 1.19375 5.0125 1.39375L5.4625 3.38125C5.4875 3.54375 5.475 3.7 5.425 3.85C5.3875 4 5.31875 4.125 5.21875 4.225L3.4 6.0625C3.65 6.5375 3.9375 6.99375 4.2625 7.43125C4.5875 7.86875 4.95 8.28125 5.35 8.66875C5.725 9.04375 6.125 9.39375 6.55 9.71875C6.975 10.0312 7.425 10.3125 7.9 10.5625L9.75625 8.7625C9.85625 8.6625 9.98125 8.59375 10.1313 8.55625C10.2813 8.50625 10.4375 8.49375 10.6 8.51875L12.6063 8.95C12.8188 9.0125 12.9875 9.125 13.1125 9.2875C13.2375 9.4375 13.3 9.61875 13.3 9.83125V12.3812C13.3 12.6437 13.2 12.8687 13 13.0562C12.8 13.2312 12.5688 13.3062 12.3063 13.2812ZM2.78125 4.75L4.09375 3.4375L3.775 2.05H2.0875C2.15 2.525 2.2375 2.9875 2.35 3.4375C2.4625 3.875 2.60625 4.3125 2.78125 4.75ZM9.23125 11.2C9.66875 11.375 10.1125 11.5187 10.5625 11.6312C11.025 11.7312 11.4875 11.8125 11.95 11.875V10.1875L10.5438 9.8875L9.23125 11.2Z" fill="#584234"/>
</svg>
