<svg width="18" height="18" viewBox="0 0 18 18" fill="none" xmlns="http://www.w3.org/2000/svg">
<path d="M3.6 10.575V9.225H9V10.575H3.6ZM3.6 7.7625V6.4125H11.7V7.7625H3.6ZM3.6 4.95V3.6H11.7V4.95H3.6ZM9.9 14.4V12.2812L13.8375 8.3625C13.925 8.275 14.025 8.2125 14.1375 8.175C14.25 8.125 14.3625 8.1 14.475 8.1C14.5875 8.1 14.7 8.125 14.8125 8.175C14.925 8.2125 15.025 8.275 15.1125 8.3625L15.9375 9.20625C16.025 9.29375 16.0875 9.39375 16.125 9.50625C16.175 9.61875 16.2 9.73125 16.2 9.84375C16.2 9.95625 16.175 10.0687 16.125 10.1812C16.0875 10.2937 16.025 10.3937 15.9375 10.4812L12.0188 14.4H9.9ZM15.3 9.84375L14.4563 9L15.3 9.84375ZM10.8 13.5H11.6438L13.8 11.3437L13.3875 10.9125L12.975 10.5L10.8 12.6562V13.5ZM13.3875 10.9125L12.975 10.5L13.8 11.3437L13.3875 10.9125Z" fill="white"/>
</svg>
