<svg width="669" height="6" viewBox="0 0 669 6" fill="none" xmlns="http://www.w3.org/2000/svg">
<g clip-path="url(#clip0_2767_893)">
<path d="M-43 0L-49 6V8H719V6L713 0L707 6L701 0L695 6L689 0L683 6L677 0L671 6L665 0L659 6L653 0L647 6L641 0L635 6L629 0L623 6L617 0L611 6L605 0L599 6L593 0L587 6L581 0L575 6L569 0L563 6L557 0L551 6L545 0L539 6L533 0L527 6L521 0L515 6L509 0L503 6L497 0L491 6L485 0L479 6L473 0L467 6L461 0L455 6L449 0L443 6L437 0L431 6L425 0L419 6L413 0L407 6L401 0L395 6L389 0L383 6L377 0L371 6L365 0L359 6L353 0L347 6L341 0L335 6L329 0L323 6L317 0L311 6L305 0L299 6L293 0L287 6L281 0L275 6L269 0L263 6L257 0L251 6L245 0L239 6L233 0L227 6L221 0L215 6L209 0L203 6L197 0L191 6L185 0L179 6L173 0L167 6L161 0L155 6L149 0L143 6L137 0L131 6L125 0L119 6L113 0L107 6L101 0L95 6L89 0L83 6L77 0L71 6L65 0L59 6L53 0L47 6L41 0L35 6L29 0L23 6L17 0L11 6L5 0L-1 6L-7 0L-13 6L-19 0L-25 6L-31 0L-37 6L-43 0Z" fill="#E3DACC"/>
</g>
<defs>
<clipPath id="clip0_2767_893">
<rect width="669" height="6" fill="white"/>
</clipPath>
</defs>
</svg>
