<svg width="669" height="6" viewBox="0 0 669 6" fill="none" xmlns="http://www.w3.org/2000/svg">
<g clip-path="url(#clip0_2464_2186)">
<path d="M712 6L718 0V-2L-50 -2V0L-44 6L-38 0L-32 6L-26 0L-20 6L-14 0L-8 6L-2 0L4 6L10 0L16 6L22 0L28 6L34 0L40 6L46 0L52 6L58 0L64 6L70 0L76 6L82 0L88 6L94 0L100 6L106 0L112 6L118 0L124 6L130 0L136 6L142 0L148 6L154 0L160 6L166 0L172 6L178 0L184 6L190 0L196 6L202 0L208 6L214 0L220 6L226 0L232 6L238 0L244 6L250 0L256 6L262 0L268 6L274 0L280 6L286 0L292 6L298 0L304 6L310 0L316 6L322 0L328 6L334 0L340 6L346 0L352 6L358 0L364 6L370 0L376 6L382 0L388 6L394 0L400 6L406 0L412 6L418 0L424 6L430 0L436 6L442 0L448 6L454 0L460 6L466 0L472 6L478 0L484 6L490 0L496 6L502 0L508 6L514 0L520 6L526 0L532 6L538 0L544 6L550 0L556 6L562 0L568 6L574 0L580 6L586 0L592 6L598 0L604 6L610 0L616 6L622 0L628 6L634 0L640 6L646 0L652 6L658 0L664 6L670 0L676 6L682 0L688 6L694 0L700 6L706 0L712 6Z" fill="#E3DACC"/>
</g>
<defs>
<clipPath id="clip0_2464_2186">
<rect width="669" height="6" fill="white" transform="matrix(-1 0 0 -1 669 6)"/>
</clipPath>
</defs>
</svg>
